#!OML:ASF H:\Terrain\Patient Classification 1\Walking\steve\steve.ASF
:FULLY-SPECIFIED
:DEGREES
125
root 8.65779 15.5426 -9.2471 7.06658 3.05195 5.39474
lowerback 1.52412 -0.38925 -5.30463
upperback -2.17452 -0.681563 -0.0682324
thorax -3.04016 -0.218596 2.93135
lowerneck -9.30488 -1.19072 -2.48129
upperneck 11.0992 -1.68729 3.47235
head 4.90898 -0.707838 1.36483
rclavicle -1.6027e-014 8.34896e-015
rhumerus -87.2928 -35.78 -13.3753
rradius 12.9007
rwrist 47.0663
rhand -18.3634 -34.4767
rfingers 7.12502
rthumb 7.91963 -64.3084
lclavicle -1.6027e-014 8.34896e-015
lhumerus -10.2806 -12.6725 85.3185
lradius 52.9926
lwrist 20.0296
lhand -27.6212 -16.7545
lfingers 7.12502
lthumb -1.02006 13.2228
rfemur -45.9297 -0.603488 18.4294
rtibia 23.8693
rfoot -11.2323 8.04616
rtoes -8.14625
lfemur 19.4405 0.377454 -30.132
ltibia -9.54166e-015
lfoot -8.66832 -8.82613
ltoes 4.5868
126
root 8.66969 15.5144 -8.97127 6.83112 3.09064 5.42627
lowerback 1.90018 -0.404519 -5.29837
upperback -2.26607 -0.723446 0.0877315
thorax -3.34236 -0.227724 3.09581
lowerneck -9.46568 -1.1192 -2.54376
upperneck 11.4032 -1.56253 3.28917
head 5.02517 -0.658489 1.32689
rclavicle 1.23743e-014 0
rhumerus -87.7004 -35.276 -12.4491
rradius 12.8357
rwrist 47.5293
rhand -18.1488 -34.2508
rfingers 7.12502
rthumb 8.12669 -64.0745
lclavicle 1.23743e-014 0
lhumerus -10.8 -11.9611 85.6172
lradius 54.0707
lwrist 20.1559
lhand -27.3619 -17.4643
lfingers 7.12502
lthumb -0.769591 12.5141
rfemur -46.1219 -0.332869 18.257
rtibia 26.3566
rfoot -10.6678 7.91638
rtoes -3.72519
lfemur 20.7376 0.186609 -30.1176
ltibia -2.8625e-014
lfoot -7.48844 -8.58513
ltoes 3.14514
127
root 8.68105 15.4852 -8.68899 6.64403 3.01545 5.55205
lowerback 1.99355 -0.413443 -5.34726
upperback -2.2567 -0.740073 0.1709
thorax -3.38263 -0.232772 3.21127
lowerneck -9.3972 -1.04654 -2.46293
upperneck 11.2866 -1.42614 2.91054
head 4.9703 -0.613982 1.20559
rclavicle 1.00635e-014 1.19271e-014
rhumerus -89.0886 -35.1013 -9.92248
rradius 12.487
rwrist 50.5125
rhand -19.1554 -33.9118
rfingers 7.12502
rthumb 7.15516 -63.7708
lclavicle 1.00635e-014 1.19271e-014
lhumerus -11.2429 -11.2855 85.857
lradius 54.8764
lwrist 20.4378
lhand -27.476 -18.0774
lfingers 7.12502
lthumb -0.879854 11.9005
rfemur -46.1154 -0.864425 18.7366
rtibia 28.7238
rfoot -8.94711 7.19114
rtoes -4.73207
lfemur 22.0026 0.0857447 -30.2036
ltibia 6.36111e-015
lfoot -5.92459 -8.13222
ltoes 2.61532
128
root 8.69695 15.4781 -8.40098 6.62845 2.94186 5.49784
lowerback 1.75607 -0.459116 -5.00948
upperback -2.18981 -0.772624 0.194402
thorax -3.17795 -0.263761 3.04395
lowerneck -8.92394 -0.984425 -2.66643
upperneck 10.6592 -1.32742 3.04603
head 4.69668 -0.570859 1.28802
rclavicle 3.55328e-015 -1.66979e-014
rhumerus -89.1697 -35.2874 -9.57614
rradius 12.5776
rwrist 50.2805
rhand -18.3303 -34.824
rfingers 7.12502
rthumb 7.95153 -64.6545
lclavicle 3.55328e-015 -1.66979e-014
lhumerus -11.9602 -10.7394 85.8445
lradius 56.0679
lwrist 20.9829
lhand -27.9755 -17.9157
lfingers 7.12502
lthumb -1.36226 12.0597
rfemur -46.0941 -1.07697 19.0514
rtibia 30.3732
rfoot -5.92775 6.10786
rtoes -3.36422
lfemur 22.9622 -0.0285285 -30.1139
ltibia -4.45278e-014
lfoot -3.55806 -7.63493
ltoes 3.00138
129
root 8.71486 15.4972 -8.11102 6.75609 2.83434 4.99569
lowerback 1.59844 -0.444543 -4.25093
upperback -2.33085 -0.717623 0.405525
thorax -3.24308 -0.247908 2.83305
lowerneck -8.66086 -0.922091 -3.0844
upperneck 10.466 -1.22117 3.31665
head 4.594 -0.521473 1.44732
rclavicle 1.56294e-014 -5.56597e-015
rhumerus -89.5309 -35.4254 -8.64294
rradius 12.7063
rwrist 50.4194
rhand -17.6753 -35.5426
rfingers 7.12502
rthumb 8.58372 -65.3481
lclavicle 1.56294e-014 -5.56597e-015
lhumerus -13.0992 -10.5955 85.9504
lradius 57.3731
lwrist 21.9728
lhand -28.6113 -17.4256
lfingers 7.12502
lthumb -1.97635 12.545
rfemur -46.2882 -0.456149 19.2552
rtibia 31.8599
rfoot -3.82324 5.01314
rtoes -2.18428
lfemur 23.669 -0.101948 -29.5249
ltibia 0
lfoot -0.841668 -6.90991
ltoes 5.62995
130
root 8.72664 15.5199 -7.82749 6.91978 2.57307 4.17586
lowerback 1.47677 -0.3235 -3.25669
upperback -2.48434 -0.512708 0.721039
thorax -3.35173 -0.161892 2.59152
lowerneck -9.08106 -0.877335 -3.19836
upperneck 10.9304 -1.12137 3.1375
head 4.80377 -0.484128 1.4175
rclavicle -2.90723e-015 -6.36111e-015
rhumerus -90.5687 -35.6914 -6.60401
rradius 12.743
rwrist 51.9803
rhand -17.4136 -35.4405
rfingers 7.12502
rthumb 8.8362 -65.2355
lclavicle -2.90723e-015 -6.36111e-015
lhumerus -13.9961 -10.112 86.3353
lradius 58.077
lwrist 22.6485
lhand -28.9728 -17.4852
lfingers 7.12502
lthumb -2.32541 12.4819
rfemur -46.4797 0.668866 19.6196
rtibia 33.2571
rfoot -2.96522 4.25808
rtoes 2.52899
lfemur 24.2556 -0.00658815 -28.5848
ltibia -1.59028e-014
lfoot 2.03495 -5.6507
ltoes 3.80937
131
root 8.74006 15.5282 -7.55069 6.95167 2.35325 3.679
lowerback 1.3216 -0.24485 -2.45774
upperback -2.43262 -0.373996 0.867512
thorax -3.22155 -0.113688 2.2863
lowerneck -9.62605 -0.88889 -2.87882
upperneck 11.3173 -1.08964 2.46418
head 5.00895 -0.494573 1.15803
rclavicle 1.02374e-014 -3.18055e-015
rhumerus -90.9812 -36.2064 -5.70034
rradius 12.7697
rwrist 53.1891
rhand -17.265 -35.2674
rfingers 7.12502
rthumb 8.97968 -65.0563
lclavicle 1.02374e-014 -3.18055e-015
lhumerus -14.4802 -9.35117 86.584
lradius 58.1138
lwrist 23.1139
lhand -29.112 -17.9703
lfingers 7.12502
lthumb -2.45987 11.9952
rfemur -46.3546 1.53333 19.757
rtibia 34.6281
rfoot -2.70647 3.74559
rtoes 8.44843
lfemur 21.2464 0.0703118 -28.0343
ltibia 7.22091
lfoot 2.75396 -5.70151
ltoes -3.21242
132
root 8.75959 15.5284 -7.27614 6.78089 2.17446 3.40404
lowerback 1.37755 -0.222243 -1.84762
upperback -2.32294 -0.32362 0.967888
thorax -3.14395 -0.104301 2.0447
lowerneck -9.85879 -0.850078 -2.63827
upperneck 11.3946 -0.994297 1.89442
head 5.06576 -0.47408 0.947832
rclavicle -1.10822e-014 2.78299e-014
rhumerus -91.6585 -36.8806 -4.19492
rradius 12.6494
rwrist 55.2004
rhand -17.499 -35.1743
rfingers 7.12502
rthumb 8.75386 -64.9727
lclavicle -1.10822e-014 2.78299e-014
lhumerus -15.1214 -9.00928 86.7362
lradius 57.8808
lwrist 23.9124
lhand -29.5669 -18.2278
lfingers 7.12502
lthumb -2.89918 11.7322
rfemur -45.9568 2.05275 19.8115
rtibia 36.124
rfoot -2.95454 3.40096
rtoes 7.85427
lfemur 17.6803 0.126531 -27.7367
ltibia 15.8191
lfoot 4.39103 -4.91123
ltoes -0.418628
133
root 8.77949 15.533 -7.00547 6.58704 1.92588 3.04936
lowerback 1.55917 -0.215828 -1.34543
upperback -2.22852 -0.295377 1.2084
thorax -3.15097 -0.0998396 2.0099
lowerneck -9.66829 -0.700076 -2.99528
upperneck 10.9617 -0.756429 2.0288
head 4.89606 -0.363814 1.06447
rclavicle -5.91384e-015 -2.38542e-015
rhumerus -92.3076 -37.6927 -2.16429
rradius 12.263
rwrist 57.4497
rhand -17.9738 -35.2743
rfingers 7.12502
rthumb 8.29564 -65.0914
lclavicle -5.91384e-015 -2.38542e-015
lhumerus -16.1873 -8.71757 87.0631
lradius 58.0155
lwrist 24.757
lhand -30.1114 -17.6332
lfingers 7.12502
lthumb -3.42503 12.3191
rfemur -45.659 2.48105 20.0706
rtibia 37.8284
rfoot -3.82336 3.23124
rtoes 5.27254
lfemur 15.3259 0.0151443 -27.3311
ltibia 21.9822
lfoot 7.85586 -1.93883
ltoes 9.1626
134
root 8.79815 15.5427 -6.74175 6.48997 1.77701 3.04767
lowerback 1.71574 -0.209238 -1.25341
upperback -2.13944 -0.281233 1.34875
thorax -3.14783 -0.0939006 2.10278
lowerneck -9.75435 -0.644018 -3.37125
upperneck 10.8187 -0.638729 2.17037
head 4.86493 -0.311594 1.17758
rclavicle 2.23633e-015 -5.56597e-015
rhumerus -91.6054 -38.5474 -2.49258
rradius 12.0314
rwrist 57.5552
rhand -18.3296 -35.6418
rfingers 7.12502
rthumb 7.9522 -65.4723
lclavicle 2.23633e-015 -5.56597e-015
lhumerus -16.951 -8.41046 87.3607
lradius 57.7149
lwrist 25.4579
lhand -30.0174 -16.9939
lfingers 7.12502
lthumb -3.33425 12.9598
rfemur -45.5193 2.57493 20.0887
rtibia 39.5541
rfoot -4.61744 3.4407
rtoes 4.34638
lfemur 13.195 0.00981226 -27.2048
ltibia 27.2622
lfoot 11.5795 1.02784
ltoes 10.2611
135
root 8.81209 15.5568 -6.48408 6.37782 1.65513 3.22229
lowerback 1.88712 -0.0850429 -1.22491
upperback -2.07518 -0.119105 1.23622
thorax -3.18573 -0.0152298 1.96407
lowerneck -9.85134 -0.748106 -3.29857
upperneck 10.9371 -0.782408 2.12665
head 4.92147 -0.381762 1.14218
rclavicle 1.54555e-014 -5.56597e-015
rhumerus -90.4768 -39.2902 -4.48407
rradius 12.0805
rwrist 56.1868
rhand -18.5841 -35.7656
rfingers 7.12502
rthumb 7.70661 -65.6052
lclavicle 1.54555e-014 -5.56597e-015
lhumerus -17.4791 -8.34983 87.5542
lradius 56.7826
lwrist 26.0797
lhand -29.2336 -16.9298
lfingers 7.12502
lthumb -2.57735 13.0344
rfemur -45.1993 2.44847 20.0517
rtibia 41.0447
rfoot -4.70988 4.26977
rtoes 6.34135
lfemur 11.0683 -0.0440221 -27.2921
ltibia 32.1126
lfoot 14.7789 3.38261
ltoes 8.04349
136
root 8.8187 15.593 -6.22099 6.10098 1.48707 3.05296
lowerback 2.12757 0.0633798 -0.980064
upperback -1.96286 0.0851664 1.21436
thorax -3.21356 0.0801328 1.79452
lowerneck -9.77699 -0.798119 -2.90683
upperneck 10.8391 -0.878592 1.87895
head 4.87863 -0.428766 0.99449
rclavicle 5.06901e-015 5.56597e-015
rhumerus -88.7795 -40.0131 -7.4173
rradius 12.2068
rwrist 54.1001
rhand -18.8645 -35.629
rfingers 7.12502
rthumb 7.43594 -65.4783
lclavicle 5.06901e-015 5.56597e-015
lhumerus -18.2664 -8.30265 87.8223
lradius 56.1226
lwrist 26.5514
lhand -28.4999 -16.485
lfingers 7.12502
lthumb -1.86875 13.4866
rfemur -44.3834 2.5271 20.3921
rtibia 42.1962
rfoot -4.85954 4.92409
rtoes 9.37034
lfemur 9.18929 0.019242 -26.9418
ltibia 36.5788
lfoot 17.4037 5.64578
ltoes 5.67809
